<?xml version="1.0" encoding="UTF-8" standalone="no"?>
<!-- Generator: Gravit.io -->

<svg
   style="isolation:isolate"
   viewBox="0 0 62 62"
   width="62pt"
   height="62pt"
   version="1.1"
   id="svg11"
   sodipodi:docname="Arubasign.svg"
   inkscape:version="1.4.2 (ebf0e940d0, 2025-05-08)"
   xmlns:inkscape="http://www.inkscape.org/namespaces/inkscape"
   xmlns:sodipodi="http://sodipodi.sourceforge.net/DTD/sodipodi-0.dtd"
   xmlns:xlink="http://www.w3.org/1999/xlink"
   xmlns="http://www.w3.org/2000/svg"
   xmlns:svg="http://www.w3.org/2000/svg">
  <defs
     id="defs11">
    <linearGradient
       id="_lgradient_26"
       x1="0"
       y1="0.5"
       x2="1"
       y2="0.5"
       gradientTransform="matrix(55.188592,0,0,56.470954,3.4057042,2.7645237)"
       gradientUnits="userSpaceOnUse">
      <stop
         offset="0%"
         stop-opacity="1"
         style="stop-color:rgb(136,42,233)"
         id="stop1-3" />
      <stop
         offset="100%"
         stop-opacity="1"
         style="stop-color:rgb(52,236,235)"
         id="stop2-6" />
    </linearGradient>
    <linearGradient
       inkscape:collect="always"
       xlink:href="#_lgradient_7"
       id="linearGradient13"
       x1="19.207607"
       y1="31.000008"
       x2="42.792393"
       y2="31.000008"
       gradientUnits="userSpaceOnUse" />
  </defs>
  <sodipodi:namedview
     id="namedview11"
     pagecolor="#505050"
     bordercolor="#ffffff"
     borderopacity="1"
     inkscape:showpageshadow="0"
     inkscape:pageopacity="0"
     inkscape:pagecheckerboard="1"
     inkscape:deskcolor="#d1d1d1"
     inkscape:document-units="pt"
     inkscape:zoom="6.8486749"
     inkscape:cx="47.819469"
     inkscape:cy="41.248855"
     inkscape:window-width="2560"
     inkscape:window-height="1385"
     inkscape:window-x="1050"
     inkscape:window-y="31"
     inkscape:window-maximized="1"
     inkscape:current-layer="svg11" />
  <linearGradient
     id="_lgradient_4"
     x1="0.4887791790113565"
     y1="0.15046604455602375"
     x2="0.5413085347754333"
     y2="0.8746112071222913"
     gradientTransform="matrix(27.85,0,0,15.02,17.45,22.865)"
     gradientUnits="userSpaceOnUse">
    <stop
       offset="0%"
       stop-opacity="1"
       style="stop-color:rgb(84,51,255)"
       id="stop1" />
    <stop
       offset="51.73913043478261%"
       stop-opacity="1"
       style="stop-color:rgb(32,189,255)"
       id="stop2" />
    <stop
       offset="98.26086956521739%"
       stop-opacity="1"
       style="stop-color:rgb(165,254,203)"
       id="stop3" />
  </linearGradient>
  <linearGradient
     id="_lgradient_5"
     x1="0.5573907018167856"
     y1="0.15561679905943337"
     x2="0.8351771953587609"
     y2="1.2186829533210468"
     gradientTransform="matrix(41.731,0,0,41.329,6.7152042,13.52737)"
     gradientUnits="userSpaceOnUse">
    <stop
       offset="0%"
       stop-opacity="1"
       style="stop-color:rgb(84,51,255)"
       id="stop4" />
    <stop
       offset="51.73913043478261%"
       stop-opacity="1"
       style="stop-color:rgb(32,189,255)"
       id="stop5" />
    <stop
       offset="98.26086956521739%"
       stop-opacity="1"
       style="stop-color:rgb(165,254,203)"
       id="stop6" />
  </linearGradient>
  <linearGradient
     id="_lgradient_6"
     x1="0.5081151832460734"
     y1="0.12319907362510535"
     x2="0.8178207385442247"
     y2="1.0420635749495173"
     gradientTransform="matrix(57.3,0,0,53.578,5.2408808,12.048425)"
     gradientUnits="userSpaceOnUse">
    <stop
       offset="0%"
       stop-opacity="1"
       style="stop-color:rgb(84,51,255)"
       id="stop7" />
    <stop
       offset="51.73913043478261%"
       stop-opacity="1"
       style="stop-color:rgb(32,189,255)"
       id="stop8" />
    <stop
       offset="98.26086956521739%"
       stop-opacity="1"
       style="stop-color:rgb(165,254,203)"
       id="stop9" />
  </linearGradient>
  <linearGradient
     id="_lgradient_7"
     x1="0.5757686770476378"
     y1="0.38670359678755284"
     x2="0.12794859489947474"
     y2="0.7917820853291071"
     gradientTransform="matrix(36.631,0,0,17.883,63.074237,30.459076)"
     gradientUnits="userSpaceOnUse">
    <stop
       offset="0%"
       stop-opacity="1"
       style="stop-color:rgb(211,0,220)"
       id="stop10" />
    <stop
       offset="100%"
       stop-opacity="1"
       style="stop-color:rgb(135,0,255)"
       id="stop11" />
  </linearGradient>
  <path
     d="m 25.570554,2.7645237 h 0.231766 0.07647 10.268302 c 0.01176,0 0.02471,0 0.02471,0 0.885888,0.012941 1.745893,0.3341198 2.425898,0.8988293 0.680004,0.5647096 1.14236,1.3470676 1.30942,2.2200144 l 0.821182,4.1576736 c 1.257655,0.577651 2.45178,1.258832 3.581199,2.054131 l 4.068262,-1.37295 c 0.384708,-0.128236 0.795299,-0.192942 1.20589,-0.205883 1.361185,0 2.631782,0.705886 3.337669,1.861188 0.01294,0.01294 0.02588,0.03882 0.02588,0.05176 l 5.145916,8.90594 c 0.01294,0.01294 0.01294,0.02588 0.02588,0.03882 0.308238,0.564709 0.475298,1.207067 0.475298,1.848247 0.01176,1.116478 -0.462356,2.182367 -1.296479,2.925901 -0.01294,0 -0.01294,0 -0.01294,0 l -3.234138,2.836489 c 0.05059,0.66824 0.08941,1.348244 0.08941,2.015308 0,0.667063 -0.03882,1.347067 -0.08941,2.015307 l 3.234138,2.836489 c 0,0 0,0 0,0 0.847065,0.743534 1.321185,1.809423 1.309421,2.925901 0,0.654122 -0.16706,1.283538 -0.475298,1.848247 -0.01294,0.01294 -0.01294,0.02588 -0.02588,0.03882 l -5.145916,8.90594 c 0,0.01294 -0.01294,0.03882 -0.02588,0.05176 -0.705887,1.168243 -1.976484,1.87413 -3.337669,1.861188 -0.410591,0 -0.821182,-0.07765 -1.20589,-0.205883 l -4.068262,-1.37295 c -1.129419,0.795299 -2.323544,1.47648 -3.581199,2.054131 l -0.821182,4.157674 c -0.16706,0.872946 -0.629416,1.655304 -1.30942,2.220014 -0.680005,0.577651 -1.54001,0.885888 -2.425898,0.898829 -0.01294,0 -0.01294,0 -0.02471,0 H 25.852908 c -0.01177,0 -0.01177,0 -0.02471,0 C 24.94231,59.222519 24.082305,58.901339 23.4023,58.33663 22.722296,57.77192 22.25994,56.989562 22.09288,56.116616 L 21.271702,51.95896 c -1.257655,-0.577651 -2.45178,-1.258832 -3.581199,-2.054131 l -4.068262,1.37295 c -0.384708,0.128236 -0.795299,0.205883 -1.20589,0.205883 -1.361186,0.01294 -2.631782,-0.692945 -3.3376689,-1.861188 -0.012941,-0.01294 -0.025882,-0.03882 -0.025882,-0.05176 l -5.1459157,-8.90594 c -0.012941,-0.01294 -0.012941,-0.02588 -0.025882,-0.03882 -0.3082373,-0.564709 -0.4752972,-1.194125 -0.4752972,-1.848247 -0.011765,-1.116478 0.462356,-2.182367 1.3094203,-2.925901 0,0 0,0 0,0 l 3.2470798,-2.836489 c -0.06353,-0.66824 -0.1023536,-1.348244 -0.1023536,-2.015307 0,-0.667064 0.038824,-1.347068 0.1023536,-2.015308 L 4.7151245,26.148204 c 0,0 0,0 0,0 -0.8470643,-0.743534 -1.3211851,-1.809423 -1.3094203,-2.925901 0,-0.64118 0.1670599,-1.283538 0.4752972,-1.848247 0.012941,-0.01294 0.012941,-0.02588 0.025882,-0.03882 l 5.1459157,-8.90594 c 0.012941,-0.01294 0.012941,-0.03882 0.025882,-0.05176 0.7058869,-1.155302 1.9764829,-1.861188 3.3376689,-1.861188 0.410591,0.01294 0.821182,0.07765 1.20589,0.205883 l 4.068262,1.37295 c 1.129419,-0.795299 2.323544,-1.47648 3.581199,-2.054131 l 0.821182,-4.1576736 c 0.154119,-0.8082405 0.564709,-1.54001 1.168243,-2.1047195 0.603533,-0.5517683 1.37295,-0.9117706 2.194132,-1.0011829 z m 23.461328,13.1553793 4.081203,7.058869 -3.47767,3.041196 c -0.654122,0.577651 -0.9753,1.463539 -0.834123,2.323545 0.128236,0.885888 0.204707,1.770599 0.204707,2.656488 0,0.885888 -0.07647,1.78354 -0.204707,2.656487 -0.141177,0.872947 0.180001,1.745894 0.834123,2.323545 l 3.47767,3.041196 -4.081203,7.058869 -4.350617,-1.462362 c -0.821181,-0.282355 -1.745893,-0.129413 -2.425898,0.423532 -1.424715,1.129419 -3.015313,2.040013 -4.709442,2.694135 -0.822358,0.321178 -1.424715,1.040007 -1.591775,1.900012 l -0.885888,4.465911 h -8.136523 l -0.885888,-4.465911 c -0.16706,-0.860005 -0.769417,-1.578834 -1.591775,-1.900012 -1.694129,-0.654122 -3.284727,-1.564716 -4.709443,-2.694135 -0.680004,-0.552945 -1.604716,-0.705887 -2.425898,-0.423532 l -4.350616,1.462362 -4.0812028,-7.058869 3.4776698,-3.041196 c 0.654122,-0.577651 0.9753,-1.450598 0.847064,-2.323545 -0.141177,-0.872947 -0.205884,-1.770599 -0.217648,-2.656487 0.01176,-0.885889 0.07647,-1.7706 0.217648,-2.656488 0.128236,-0.860006 -0.192942,-1.745894 -0.847064,-2.323545 l -3.4776698,-3.041196 4.0812028,-7.058869 4.350616,1.475304 c 0.821182,0.269413 1.745894,0.116471 2.425898,-0.423533 1.424716,-1.14236 3.015314,-2.052954 4.709443,-2.707076 0.822358,-0.321178 1.424715,-1.040007 1.591775,-1.900012 l 0.885888,-4.4659114 h 8.149464 l 0.872947,4.4659114 c 0.180001,0.860005 0.769417,1.578834 1.591775,1.900012 1.70707,0.654122 3.284727,1.564716 4.722384,2.707076 0.680004,0.540004 1.591775,0.692946 2.412956,0.423533 z"
     fill-rule="evenodd"
     fill="url(#_lgradient_26)"
     id="path2"
     style="display:inline;isolation:isolate;fill:url(#_lgradient_26);stroke-width:1" />
  <path
     d="m 42.792366,30.575837 q 0,1.95126 -0.254513,3.605589 -0.254512,1.611911 -0.848374,2.799635 -0.551443,1.145304 -1.527073,1.781585 -0.97563,0.63628 -2.375447,0.63628 -1.230142,0 -2.163354,-0.678699 -0.890793,-0.721118 -1.272561,-1.569492 -0.678699,0.97563 -1.866423,1.696748 -1.145305,0.721118 -2.333028,0.721118 -0.97563,0 -1.951261,-0.339349 -0.933211,-0.381769 -1.654329,-1.145305 -0.721118,-0.763537 -1.187724,-1.908842 -0.424187,-1.145305 -0.424187,-2.714797 0,-1.442236 0.424187,-2.502703 0.424187,-1.102886 1.102887,-1.781585 0.721118,-0.721118 1.61191,-1.060468 0.933212,-0.33935 1.908842,-0.33935 0.848374,0 1.611911,0.254513 0.805955,0.212093 1.442235,0.551443 v -1.65433 q 0,-1.102886 -0.593861,-1.569492 -0.593862,-0.509024 -1.824005,-0.509024 -0.805955,0 -1.569492,0.254512 -0.721117,0.254512 -1.61191,0.97563 l -1.272561,-2.629959 q 1.102886,-0.848374 2.333028,-1.230142 1.230143,-0.424188 2.375448,-0.424188 2.629959,0 4.029776,1.31498 1.442236,1.31498 1.442236,4.072196 v 7.380854 q 0,1.060467 0.296931,1.739166 0.33935,0.636281 1.272561,0.636281 1.272561,0 1.866423,-1.484655 0.593862,-1.484654 0.593862,-4.962988 0,-2.92689 -0.721118,-5.2175 -0.678699,-2.333029 -1.908842,-3.902521 -1.230142,-1.569491 -2.969309,-2.375447 -1.739167,-0.848374 -3.775264,-0.848374 -2.120935,0 -3.860102,0.933212 -1.696748,0.890792 -2.92689,2.58754 -1.187724,1.65433 -1.866423,4.029777 -0.636281,2.333029 -0.636281,5.2175 0,2.884472 0.636281,5.302338 0.678699,2.375447 1.908841,4.072195 1.230143,1.696748 2.969309,2.62996 1.739167,0.933211 3.860102,0.933211 1.060468,0 2.078517,-0.212093 1.060467,-0.212094 2.205772,-0.848374 l 0.933211,1.993679 q -1.484654,0.97563 -2.714796,1.230142 -1.187724,0.296931 -2.587541,0.296931 -2.545122,0 -4.708476,-1.060468 -2.163354,-1.102886 -3.732846,-3.096565 -1.569492,-2.036098 -2.460284,-4.835732 -0.890793,-2.842053 -0.890793,-6.320386 0,-3.478334 0.890793,-6.277968 0.890792,-2.842053 2.460284,-4.835732 1.569492,-2.036098 3.732846,-3.096565 2.163354,-1.102886 4.708476,-1.102886 2.587541,0 4.750894,1.060467 2.205773,1.060468 3.732846,3.011728 1.569492,1.95126 2.417866,4.708476 0.890793,2.757215 0.890793,6.108293 z m -9.756302,1.314979 q -0.424187,-0.466605 -1.102886,-0.763536 -0.678699,-0.33935 -1.61191,-0.33935 -1.102887,0 -1.569492,0.763537 -0.466606,0.721118 -0.466606,1.824004 0,1.357398 0.424187,2.205772 0.424187,0.848374 1.781585,0.848374 0.805956,0 1.484655,-0.551443 0.678699,-0.551443 1.060467,-1.527073 z"
     id="text11"
     style="font-weight:bold;font-size:42.4187px;line-height:0.96;font-family:Interstate-BoldCondensed;-inkscape-font-specification:'Interstate-BoldCondensed, Bold';text-align:center;letter-spacing:0px;word-spacing:0px;text-anchor:middle;fill:url(#linearGradient13);stroke-width:2.83464;stroke-linecap:round;stroke-linejoin:round"
     aria-label="@" />
</svg>
